<svg xmlns="http://www.w3.org/2000/svg" viewBox="0 0 100 100">
    <defs>
        <linearGradient id="brownGradient" x1="0%" y1="0%" x2="100%" y2="100%">
            <stop offset="0%" style="stop-color:#8B4513;stop-opacity:1" />
            <stop offset="100%" style="stop-color:#D2691E;stop-opacity:1" />
        </linearGradient>
        <linearGradient id="purpleGradient" x1="0%" y1="0%" x2="100%" y2="100%">
            <stop offset="0%" style="stop-color:#800080;stop-opacity:1" />
            <stop offset="100%" style="stop-color:#DA70D6;stop-opacity:1" />
        </linearGradient>
    </defs>
    <path id="Vector_2" d="M18.6 60.7388C18.6 60.2306 18.9587 59.796 19.4602 59.711C22.0196 59.2775 29.7585 58.0508 35.4 58.0508C41.0415 58.0508 48.7804 59.2775 51.3398 59.711C51.8412 59.796 52.2 60.2306 52.2 60.7388C52.2 60.902 52.0575 61.0268 51.8967 61.0004C50.1219 60.707 40.9704 59.2409 35.4 59.2409C29.8295 59.2409 20.678 60.707 18.9033 61.0004C18.7425 61.0268 18.6 60.902 18.6 60.7388Z" fill="url(#brownGradient)"/>
    <path id="Vector_3" d="M8.99995 12H63C63.9941 12 64.8 12.8059 64.8 13.8V51.6C64.8 52.5941 63.9941 53.4 63 53.4H8.99995C8.00584 53.4 7.19995 52.5941 7.19995 51.6V13.8C7.19995 12.8059 8.00584 12 8.99995 12Z" fill="url(#purpleGradient)"/>
    <path id="Vector_4" d="M35.4 52.8C36.3941 52.8 37.2 52.3971 37.2 51.9C37.2 51.4029 36.3941 51 35.4 51C34.4059 51 33.6 51.4029 33.6 51.9C33.6 52.3971 34.4059 52.8 35.4 52.8Z" fill="#32CD32"/>
</svg>
