<svg xmlns="http://www.w3.org/2000/svg" viewBox="0 0 72 72">
    <path id="Vector" d="M36 7c19.8882 0 36 16.1118 36 36s-16.1118 36-36 36S0 62.8882 0 43 16.1118 7 36 7z"/>
    <path opacity="0.4" d="M64.7658 36.195C65.5206 51.5916 53.7908 63.5824 38.5668 62.977C23.3428 62.3722 10.3893 49.4 9.63446 34.0034C8.87954 18.6068 20.6091 6.61594 35.8331 7.22116C51.0571 7.82638 64.1104 20.7984 64.7658 36.195z" fill="url(#paint0)"/>
    <path d="M62.3657 37.9958C63.1205 53.3924 51.3908 65.3832 36.1668 64.7778C20.9428 64.173 7.9893 51.208 7.23446 35.8041C6.47952 20.4075 18.2091 8.41672 33.4331 9.02194C48.6571 9.62716 61.6103 22.5992 62.3657 37.9958z"/>
    <path opacity="0.5" d="M64.7658 36.195C65.5206 51.5916 53.7908 63.5824 38.5668 62.977C23.3428 62.3722 10.3893 49.4 9.63446 34.0034C8.87954 18.6068 20.6091 6.61594 35.8331 7.22116C51.0571 7.82638 64.1104 20.7984 64.7658 36.195z" fill="url(#paint1)"/>
    <path opacity="0.6" d="M36.9 60.6C48.6636 60.6 58.2 51.0637 58.2 39.3C58.2 27.5363 48.6636 18 36.9 18C25.1363 18 15.6 27.5363 15.6 39.3C15.6 51.0637 25.1363 60.6 36.9 60.6z"/>
    <path fill-rule="evenodd" clip-rule="evenodd" d="M39.0849 42.2727L46.3387 35.76L48.8945 38.5142L38.9118 47.477L37.8466 48.4333L36.071 47.477L24.9899 38.5142L27.0434 35.76L35.4849 42.2727L33.6 21.6016H37.2L39.0849 42.2727Z" fill="url(#paint2)"/>
    <path opacity="0.4" fill-rule="evenodd" clip-rule="evenodd" d="M61.6566 34.9618C61.7832 35.3893 62.391 35.3233 62.3694 34.878C61.6962 21.1369 50.1509 9.55975 36.5817 9.21957C34.4606 8.93515 32.4155 9.12541 30.4772 9.55909C30.0745 9.64915 30.1575 10.2082 30.5697 10.2246C45.0094 10.7979 57.6246 21.2971 61.6566 34.9618Z"/>
    <defs>
        <linearGradient id="paint0" x1="0" y1="0" x2="1" y2="1">
            <stop offset="0%" stop-color="#FF5733"/>
            <stop offset="100%" stop-color="#C70039"/>
        </linearGradient>
        <linearGradient id="paint1" x1="0" y1="0" x2="1" y2="1">
            <stop offset="0%" stop-color="#900C3F"/>
            <stop offset="100%" stop-color="#581845"/>
        </linearGradient>
        <linearGradient id="paint2" x1="0" y1="0" x2="1" y2="1">
            <stop offset="0%" stop-color="#FFC300"/>
            <stop offset="100%" stop-color="#FF5733"/>
        </linearGradient>
    </defs>
</svg>